<svg xmlns="http://www.w3.org/2000/svg" width="980" height="460" viewBox="0 0 980 460">
<rect width="100%" height="100%" fill="white"/>
<text x="490.0" y="24" text-anchor="middle" font-size="18" font-family="Helvetica">score vs n_bands: Z_R2</text>
<line x1="70" y1="398" x2="950" y2="398" stroke="black"/>
<line x1="70" y1="42" x2="70" y2="398" stroke="black"/>
<rect x="180.00" y="42" width="24.44" height="356" fill="#f0f0f0" opacity="0.45"/>
<rect x="277.78" y="42" width="73.33" height="356" fill="#f0f0f0" opacity="0.45"/>
<rect x="277.78" y="42" width="97.78" height="356" fill="#f0f0f0" opacity="0.45"/>
<rect x="302.22" y="42" width="73.33" height="356" fill="#f0f0f0" opacity="0.45"/>
<rect x="314.44" y="42" width="73.33" height="356" fill="#f0f0f0" opacity="0.45"/>
<rect x="314.44" y="42" width="97.78" height="356" fill="#f0f0f0" opacity="0.45"/>
<rect x="338.89" y="42" width="73.33" height="356" fill="#f0f0f0" opacity="0.45"/>
<rect x="534.44" y="42" width="24.44" height="356" fill="#f0f0f0" opacity="0.45"/>
<rect x="546.67" y="42" width="24.44" height="356" fill="#f0f0f0" opacity="0.45"/>
<rect x="644.44" y="42" width="24.44" height="356" fill="#f0f0f0" opacity="0.45"/>
<rect x="656.67" y="42" width="24.44" height="356" fill="#f0f0f0" opacity="0.45"/>
<rect x="693.33" y="42" width="24.44" height="356" fill="#f0f0f0" opacity="0.45"/>
<rect x="730.00" y="42" width="24.44" height="356" fill="#f0f0f0" opacity="0.45"/>
<rect x="888.89" y="42" width="24.44" height="356" fill="#f0f0f0" opacity="0.45"/>
<rect x="888.89" y="42" width="48.89" height="356" fill="#f0f0f0" opacity="0.45"/>
<rect x="913.33" y="42" width="24.44" height="356" fill="#f0f0f0" opacity="0.45"/>
<polyline fill="none" stroke="#1f77b4" stroke-width="2" points="70.00,398.00 82.22,351.25 94.44,285.54 106.67,261.88 118.89,296.49 131.11,242.67 143.33,251.58 155.56,245.07 167.78,226.41 180.00,194.55 192.22,197.46 204.44,195.74 216.67,180.62 228.89,182.16 241.11,197.97 253.33,207.93 265.56,220.16 277.78,171.73 290.00,171.94 302.22,163.57 314.44,162.56 326.67,166.63 338.89,164.14 351.11,161.86 363.33,167.87 375.56,160.91 387.78,155.65 400.00,128.55 412.22,116.16 424.44,128.70 436.67,137.47 448.89,155.17 461.11,134.52 473.33,119.76 485.56,129.38 497.78,92.52 510.00,87.36 522.22,103.03 534.44,112.67 546.67,114.23 558.89,113.45 571.11,120.53 583.33,105.52 595.56,88.88 607.78,93.79 620.00,113.20 632.22,121.81 644.44,104.64 656.67,99.27 668.89,99.59 681.11,97.28 693.33,88.99 705.56,86.94 717.78,91.50 730.00,99.96 742.22,99.70 754.44,96.03 766.67,76.69 778.89,74.36 791.11,96.72 803.33,95.10 815.56,72.23 827.78,64.00 840.00,48.25 852.22,59.67 864.44,68.40 876.67,69.81 888.89,47.14 901.11,51.03 913.33,48.59 925.56,42.00 937.78,45.41 950.00,58.32"/>
<circle cx="106.67" cy="261.88" r="4" fill="#d62728"/>
<text x="112.67" y="255.88" font-size="10" font-family="Helvetica">11</text>
<circle cx="131.11" cy="242.67" r="4" fill="#d62728"/>
<text x="137.11" y="236.67" font-size="10" font-family="Helvetica">13</text>
<circle cx="180.00" cy="194.55" r="4" fill="#d62728"/>
<text x="186.00" y="188.55" font-size="10" font-family="Helvetica">17</text>
<circle cx="216.67" cy="180.62" r="4" fill="#d62728"/>
<text x="222.67" y="174.62" font-size="10" font-family="Helvetica">20</text>
<circle cx="277.78" cy="171.73" r="4" fill="#d62728"/>
<text x="283.78" y="165.73" font-size="10" font-family="Helvetica">25</text>
<circle cx="314.44" cy="162.56" r="4" fill="#d62728"/>
<text x="320.44" y="156.56" font-size="10" font-family="Helvetica">28</text>
<circle cx="351.11" cy="161.86" r="4" fill="#d62728"/>
<text x="357.11" y="155.86" font-size="10" font-family="Helvetica">31</text>
<circle cx="412.22" cy="116.16" r="4" fill="#d62728"/>
<text x="418.22" y="110.16" font-size="10" font-family="Helvetica">36</text>
<circle cx="473.33" cy="119.76" r="4" fill="#d62728"/>
<text x="479.33" y="113.76" font-size="10" font-family="Helvetica">41</text>
<circle cx="510.00" cy="87.36" r="4" fill="#d62728"/>
<text x="516.00" y="81.36" font-size="10" font-family="Helvetica">44</text>
<circle cx="558.89" cy="113.45" r="4" fill="#d62728"/>
<text x="564.89" y="107.45" font-size="10" font-family="Helvetica">48</text>
<circle cx="595.56" cy="88.88" r="4" fill="#d62728"/>
<text x="601.56" y="82.88" font-size="10" font-family="Helvetica">51</text>
<circle cx="656.67" cy="99.27" r="4" fill="#d62728"/>
<text x="662.67" y="93.27" font-size="10" font-family="Helvetica">56</text>
<circle cx="705.56" cy="86.94" r="4" fill="#d62728"/>
<text x="711.56" y="80.94" font-size="10" font-family="Helvetica">60</text>
<circle cx="778.89" cy="74.36" r="4" fill="#d62728"/>
<text x="784.89" y="68.36" font-size="10" font-family="Helvetica">66</text>
<circle cx="840.00" cy="48.25" r="4" fill="#d62728"/>
<text x="846.00" y="42.25" font-size="10" font-family="Helvetica">71</text>
<circle cx="888.89" cy="47.14" r="4" fill="#d62728"/>
<text x="894.89" y="41.14" font-size="10" font-family="Helvetica">75</text>
<circle cx="925.56" cy="42.00" r="4" fill="#d62728"/>
<text x="931.56" y="36.00" font-size="10" font-family="Helvetica">78</text>
<line x1="70.00" y1="398" x2="70.00" y2="403" stroke="black"/>
<text x="70.00" y="418" font-size="10" text-anchor="middle" font-family="Helvetica">8</text>
<line x1="118.89" y1="398" x2="118.89" y2="403" stroke="black"/>
<text x="118.89" y="418" font-size="10" text-anchor="middle" font-family="Helvetica">12</text>
<line x1="167.78" y1="398" x2="167.78" y2="403" stroke="black"/>
<text x="167.78" y="418" font-size="10" text-anchor="middle" font-family="Helvetica">16</text>
<line x1="216.67" y1="398" x2="216.67" y2="403" stroke="black"/>
<text x="216.67" y="418" font-size="10" text-anchor="middle" font-family="Helvetica">20</text>
<line x1="265.56" y1="398" x2="265.56" y2="403" stroke="black"/>
<text x="265.56" y="418" font-size="10" text-anchor="middle" font-family="Helvetica">24</text>
<line x1="314.44" y1="398" x2="314.44" y2="403" stroke="black"/>
<text x="314.44" y="418" font-size="10" text-anchor="middle" font-family="Helvetica">28</text>
<line x1="363.33" y1="398" x2="363.33" y2="403" stroke="black"/>
<text x="363.33" y="418" font-size="10" text-anchor="middle" font-family="Helvetica">32</text>
<line x1="412.22" y1="398" x2="412.22" y2="403" stroke="black"/>
<text x="412.22" y="418" font-size="10" text-anchor="middle" font-family="Helvetica">36</text>
<line x1="461.11" y1="398" x2="461.11" y2="403" stroke="black"/>
<text x="461.11" y="418" font-size="10" text-anchor="middle" font-family="Helvetica">40</text>
<line x1="510.00" y1="398" x2="510.00" y2="403" stroke="black"/>
<text x="510.00" y="418" font-size="10" text-anchor="middle" font-family="Helvetica">44</text>
<line x1="558.89" y1="398" x2="558.89" y2="403" stroke="black"/>
<text x="558.89" y="418" font-size="10" text-anchor="middle" font-family="Helvetica">48</text>
<line x1="607.78" y1="398" x2="607.78" y2="403" stroke="black"/>
<text x="607.78" y="418" font-size="10" text-anchor="middle" font-family="Helvetica">52</text>
<line x1="656.67" y1="398" x2="656.67" y2="403" stroke="black"/>
<text x="656.67" y="418" font-size="10" text-anchor="middle" font-family="Helvetica">56</text>
<line x1="705.56" y1="398" x2="705.56" y2="403" stroke="black"/>
<text x="705.56" y="418" font-size="10" text-anchor="middle" font-family="Helvetica">60</text>
<line x1="754.44" y1="398" x2="754.44" y2="403" stroke="black"/>
<text x="754.44" y="418" font-size="10" text-anchor="middle" font-family="Helvetica">64</text>
<line x1="803.33" y1="398" x2="803.33" y2="403" stroke="black"/>
<text x="803.33" y="418" font-size="10" text-anchor="middle" font-family="Helvetica">68</text>
<line x1="852.22" y1="398" x2="852.22" y2="403" stroke="black"/>
<text x="852.22" y="418" font-size="10" text-anchor="middle" font-family="Helvetica">72</text>
<line x1="901.11" y1="398" x2="901.11" y2="403" stroke="black"/>
<text x="901.11" y="418" font-size="10" text-anchor="middle" font-family="Helvetica">76</text>
<line x1="950.00" y1="398" x2="950.00" y2="403" stroke="black"/>
<text x="950.00" y="418" font-size="10" text-anchor="middle" font-family="Helvetica">80</text>
<line x1="65" y1="398.00" x2="70" y2="398.00" stroke="black"/>
<text x="62" y="402.00" text-anchor="end" font-size="10" font-family="Helvetica">0.463</text>
<line x1="65" y1="309.00" x2="70" y2="309.00" stroke="black"/>
<text x="62" y="313.00" text-anchor="end" font-size="10" font-family="Helvetica">0.539</text>
<line x1="65" y1="220.00" x2="70" y2="220.00" stroke="black"/>
<text x="62" y="224.00" text-anchor="end" font-size="10" font-family="Helvetica">0.615</text>
<line x1="65" y1="131.00" x2="70" y2="131.00" stroke="black"/>
<text x="62" y="135.00" text-anchor="end" font-size="10" font-family="Helvetica">0.691</text>
<line x1="65" y1="42.00" x2="70" y2="42.00" stroke="black"/>
<text x="62" y="46.00" text-anchor="end" font-size="10" font-family="Helvetica">0.767</text>
<text x="490.0" y="444" text-anchor="middle" font-size="13" font-family="Helvetica">n_bands</text>
<text x="20" y="230.0" text-anchor="middle" transform="rotate(-90 20 230.0)" font-size="13" font-family="Helvetica">Z_R2</text>
</svg>
