<svg xmlns="http://www.w3.org/2000/svg" width="980" height="460" viewBox="0 0 980 460">
<rect width="100%" height="100%" fill="white"/>
<text x="490.0" y="24" text-anchor="middle" font-size="18" font-family="Helvetica">score vs n_bands (multi-metrics)</text>
<line x1="70" y1="398" x2="950" y2="398" stroke="black"/>
<line x1="70" y1="42" x2="70" y2="398" stroke="black"/>
<polyline fill="none" stroke="#1f77b4" stroke-width="2" points="70.00,398.00 82.22,398.00 94.44,398.00 106.67,398.00 118.89,398.00 131.11,398.00 143.33,398.00 155.56,398.00 167.78,398.00 180.00,398.00 192.22,398.00 204.44,398.00 216.67,398.00 228.89,398.00 241.11,398.00 253.33,398.00 265.56,398.00 277.78,398.00 290.00,398.00 302.22,398.00 314.44,398.00 326.67,398.00 338.89,398.00 351.11,398.00 363.33,398.00 375.56,398.00 387.78,398.00 400.00,398.00 412.22,398.00 424.44,398.00 436.67,398.00 448.89,398.00 461.11,398.00 473.33,398.00 485.56,398.00 497.78,398.00 510.00,398.00 522.22,398.00 534.44,398.00 546.67,398.00 558.89,398.00 571.11,398.00 583.33,398.00 595.56,398.00 607.78,398.00 620.00,398.00 632.22,398.00 644.44,398.00 656.67,398.00 668.89,398.00 681.11,398.00 693.33,398.00 705.56,398.00 717.78,398.00 730.00,398.00 742.22,398.00 754.44,398.00 766.67,398.00 778.89,398.00 791.11,398.00 803.33,398.00 815.56,398.00 827.78,398.00 840.00,398.00 852.22,398.00 864.44,398.00 876.67,398.00 888.89,398.00 901.11,398.00 913.33,398.00 925.56,398.00 937.78,398.00 950.00,398.00"/>
<text x="80" y="60" fill="#1f77b4" font-size="11" font-family="Helvetica">mean_top10_anova_block</text>
<polyline fill="none" stroke="#d62728" stroke-width="2" points="70.00,398.00 82.22,398.00 94.44,398.00 106.67,398.00 118.89,398.00 131.11,398.00 143.33,398.00 155.56,398.00 167.78,398.00 180.00,398.00 192.22,398.00 204.44,398.00 216.67,398.00 228.89,398.00 241.11,398.00 253.33,398.00 265.56,398.00 277.78,398.00 290.00,398.00 302.22,398.00 314.44,398.00 326.67,398.00 338.89,398.00 351.11,398.00 363.33,398.00 375.56,398.00 387.78,398.00 400.00,398.00 412.22,398.00 424.44,398.00 436.67,398.00 448.89,398.00 461.11,398.00 473.33,398.00 485.56,398.00 497.78,398.00 510.00,398.00 522.22,398.00 534.44,398.00 546.67,398.00 558.89,398.00 571.11,398.00 583.33,398.00 595.56,398.00 607.78,398.00 620.00,398.00 632.22,398.00 644.44,398.00 656.67,398.00 668.89,398.00 681.11,398.00 693.33,398.00 705.56,398.00 717.78,398.00 730.00,398.00 742.22,398.00 754.44,398.00 766.67,398.00 778.89,398.00 791.11,398.00 803.33,398.00 815.56,398.00 827.78,398.00 840.00,398.00 852.22,398.00 864.44,398.00 876.67,398.00 888.89,398.00 901.11,398.00 913.33,398.00 925.56,398.00 937.78,398.00 950.00,398.00"/>
<text x="80" y="76" fill="#d62728" font-size="11" font-family="Helvetica">mean_top10_anova_period</text>
<polyline fill="none" stroke="#2ca02c" stroke-width="2" points="70.00,163.32 82.22,186.53 94.44,42.00 106.67,70.43 118.89,235.25 131.11,249.78 143.33,141.56 155.56,162.62 167.78,281.22 180.00,286.24 192.22,213.95 204.44,223.06 216.67,303.11 228.89,309.90 241.11,255.19 253.33,260.51 265.56,319.25 277.78,321.80 290.00,284.69 302.22,290.41 314.44,331.17 326.67,332.91 338.89,308.84 351.11,311.73 363.33,340.88 375.56,343.23 387.78,327.48 400.00,329.24 412.22,349.46 424.44,350.72 436.67,340.65 448.89,342.57 461.11,355.04 473.33,356.24 485.56,351.76 497.78,352.54 510.00,359.14 522.22,360.01 534.44,358.79 546.67,359.97 558.89,364.10 571.11,364.67 583.33,365.09 595.56,365.65 607.78,367.66 620.00,368.46 632.22,370.23 644.44,370.85 656.67,370.79 668.89,371.02 681.11,373.37 693.33,373.96 705.56,373.25 717.78,373.70 730.00,376.45 742.22,376.77 754.44,375.74 766.67,376.04 778.89,378.60 791.11,378.92 803.33,377.66 815.56,378.10 827.78,380.66 840.00,380.76 852.22,379.76 864.44,380.11 876.67,382.48 888.89,382.71 901.11,381.38 913.33,381.62 925.56,383.80 937.78,383.96 950.00,382.66"/>
<text x="80" y="92" fill="#2ca02c" font-size="11" font-family="Helvetica">periodicity_strength</text>
<polyline fill="none" stroke="#9467bd" stroke-width="2" points="70.00,398.00 82.22,398.00 94.44,398.00 106.67,398.00 118.89,398.00 131.11,398.00 143.33,398.00 155.56,398.00 167.78,398.00 180.00,398.00 192.22,398.00 204.44,398.00 216.67,398.00 228.89,398.00 241.11,398.00 253.33,398.00 265.56,398.00 277.78,398.00 290.00,398.00 302.22,398.00 314.44,398.00 326.67,398.00 338.89,398.00 351.11,398.00 363.33,398.00 375.56,398.00 387.78,398.00 400.00,398.00 412.22,398.00 424.44,398.00 436.67,398.00 448.89,398.00 461.11,398.00 473.33,398.00 485.56,398.00 497.78,398.00 510.00,398.00 522.22,398.00 534.44,398.00 546.67,398.00 558.89,398.00 571.11,398.00 583.33,398.00 595.56,398.00 607.78,398.00 620.00,398.00 632.22,398.00 644.44,398.00 656.67,398.00 668.89,398.00 681.11,398.00 693.33,398.00 705.56,398.00 717.78,398.00 730.00,398.00 742.22,398.00 754.44,398.00 766.67,398.00 778.89,398.00 791.11,398.00 803.33,398.00 815.56,398.00 827.78,398.00 840.00,398.00 852.22,398.00 864.44,398.00 876.67,398.00 888.89,398.00 901.11,398.00 913.33,398.00 925.56,398.00 937.78,398.00 950.00,398.00"/>
<text x="80" y="108" fill="#9467bd" font-size="11" font-family="Helvetica">silhouette_best</text>
<polyline fill="none" stroke="#ff7f0e" stroke-width="2" points="70.00,398.00 82.22,398.00 94.44,398.00 106.67,398.00 118.89,398.00 131.11,398.00 143.33,398.00 155.56,398.00 167.78,398.00 180.00,398.00 192.22,398.00 204.44,398.00 216.67,398.00 228.89,398.00 241.11,398.00 253.33,398.00 265.56,398.00 277.78,398.00 290.00,398.00 302.22,398.00 314.44,398.00 326.67,398.00 338.89,398.00 351.11,398.00 363.33,398.00 375.56,398.00 387.78,398.00 400.00,398.00 412.22,398.00 424.44,398.00 436.67,398.00 448.89,398.00 461.11,398.00 473.33,398.00 485.56,398.00 497.78,398.00 510.00,398.00 522.22,398.00 534.44,398.00 546.67,398.00 558.89,398.00 571.11,398.00 583.33,398.00 595.56,398.00 607.78,398.00 620.00,398.00 632.22,398.00 644.44,398.00 656.67,398.00 668.89,398.00 681.11,398.00 693.33,398.00 705.56,398.00 717.78,398.00 730.00,398.00 742.22,398.00 754.44,398.00 766.67,398.00 778.89,398.00 791.11,398.00 803.33,398.00 815.56,398.00 827.78,398.00 840.00,398.00 852.22,398.00 864.44,398.00 876.67,398.00 888.89,398.00 901.11,398.00 913.33,398.00 925.56,398.00 937.78,398.00 950.00,398.00"/>
<text x="80" y="124" fill="#ff7f0e" font-size="11" font-family="Helvetica">Z_R2</text>
</svg>
