<svg xmlns="http://www.w3.org/2000/svg" width="980" height="460" viewBox="0 0 980 460">
<rect width="100%" height="100%" fill="white"/>
<text x="490.0" y="24" text-anchor="middle" font-size="18" font-family="Helvetica">score vs n_bands: silhouette_best</text>
<line x1="70" y1="398" x2="950" y2="398" stroke="black"/>
<line x1="70" y1="42" x2="70" y2="398" stroke="black"/>
<rect x="302.22" y="42" width="24.44" height="356" fill="#f0f0f0" opacity="0.45"/>
<rect x="338.89" y="42" width="24.44" height="356" fill="#f0f0f0" opacity="0.45"/>
<rect x="363.33" y="42" width="48.89" height="356" fill="#f0f0f0" opacity="0.45"/>
<rect x="375.56" y="42" width="48.89" height="356" fill="#f0f0f0" opacity="0.45"/>
<rect x="387.78" y="42" width="48.89" height="356" fill="#f0f0f0" opacity="0.45"/>
<rect x="473.33" y="42" width="24.44" height="356" fill="#f0f0f0" opacity="0.45"/>
<rect x="473.33" y="42" width="48.89" height="356" fill="#f0f0f0" opacity="0.45"/>
<rect x="522.22" y="42" width="24.44" height="356" fill="#f0f0f0" opacity="0.45"/>
<rect x="558.89" y="42" width="24.44" height="356" fill="#f0f0f0" opacity="0.45"/>
<rect x="595.56" y="42" width="24.44" height="356" fill="#f0f0f0" opacity="0.45"/>
<rect x="607.78" y="42" width="24.44" height="356" fill="#f0f0f0" opacity="0.45"/>
<rect x="607.78" y="42" width="48.89" height="356" fill="#f0f0f0" opacity="0.45"/>
<rect x="681.11" y="42" width="24.44" height="356" fill="#f0f0f0" opacity="0.45"/>
<rect x="705.56" y="42" width="48.89" height="356" fill="#f0f0f0" opacity="0.45"/>
<rect x="730.00" y="42" width="24.44" height="356" fill="#f0f0f0" opacity="0.45"/>
<rect x="766.67" y="42" width="24.44" height="356" fill="#f0f0f0" opacity="0.45"/>
<rect x="876.67" y="42" width="24.44" height="356" fill="#f0f0f0" opacity="0.45"/>
<rect x="888.89" y="42" width="24.44" height="356" fill="#f0f0f0" opacity="0.45"/>
<rect x="925.56" y="42" width="24.44" height="356" fill="#f0f0f0" opacity="0.45"/>
<polyline fill="none" stroke="#1f77b4" stroke-width="2" points="70.00,135.42 82.22,143.28 94.44,42.00 106.67,368.33 118.89,259.21 131.11,398.00 143.33,90.62 155.56,103.19 167.78,95.85 180.00,325.13 192.22,113.95 204.44,187.56 216.67,140.93 228.89,361.32 241.11,88.76 253.33,101.75 265.56,105.30 277.78,117.84 290.00,116.83 302.22,128.31 314.44,129.96 326.67,131.72 338.89,97.58 351.11,102.54 363.33,102.88 375.56,118.72 387.78,123.44 400.00,122.30 412.22,117.54 424.44,123.50 436.67,94.24 448.89,102.19 461.11,108.35 473.33,119.08 485.56,116.91 497.78,114.55 510.00,119.77 522.22,130.00 534.44,128.07 546.67,134.33 558.89,106.52 571.11,112.33 583.33,115.74 595.56,124.74 607.78,121.26 620.00,126.74 632.22,131.24 644.44,135.86 656.67,128.32 668.89,126.98 681.11,108.06 693.33,114.33 705.56,116.65 717.78,124.13 730.00,120.08 742.22,125.36 754.44,129.49 766.67,139.85 778.89,136.95 791.11,142.97 803.33,117.79 815.56,116.46 827.78,124.19 840.00,129.60 852.22,121.63 864.44,125.16 876.67,133.56 888.89,138.65 901.11,140.04 913.33,145.30 925.56,120.92 937.78,127.51 950.00,132.96"/>
<circle cx="94.44" cy="42.00" r="4" fill="#d62728"/>
<text x="100.44" y="36.00" font-size="10" font-family="Helvetica">10</text>
<circle cx="118.89" cy="259.21" r="4" fill="#d62728"/>
<text x="124.89" y="253.21" font-size="10" font-family="Helvetica">12</text>
<circle cx="143.33" cy="90.62" r="4" fill="#d62728"/>
<text x="149.33" y="84.62" font-size="10" font-family="Helvetica">14</text>
<circle cx="167.78" cy="95.85" r="4" fill="#d62728"/>
<text x="173.78" y="89.85" font-size="10" font-family="Helvetica">16</text>
<circle cx="192.22" cy="113.95" r="4" fill="#d62728"/>
<text x="198.22" y="107.95" font-size="10" font-family="Helvetica">18</text>
<circle cx="216.67" cy="140.93" r="4" fill="#d62728"/>
<text x="222.67" y="134.93" font-size="10" font-family="Helvetica">20</text>
<circle cx="241.11" cy="88.76" r="4" fill="#d62728"/>
<text x="247.11" y="82.76" font-size="10" font-family="Helvetica">22</text>
<circle cx="290.00" cy="116.83" r="4" fill="#d62728"/>
<text x="296.00" y="110.83" font-size="10" font-family="Helvetica">26</text>
<circle cx="338.89" cy="97.58" r="4" fill="#d62728"/>
<text x="344.89" y="91.58" font-size="10" font-family="Helvetica">30</text>
<circle cx="412.22" cy="117.54" r="4" fill="#d62728"/>
<text x="418.22" y="111.54" font-size="10" font-family="Helvetica">36</text>
<circle cx="436.67" cy="94.24" r="4" fill="#d62728"/>
<text x="442.67" y="88.24" font-size="10" font-family="Helvetica">38</text>
<circle cx="497.78" cy="114.55" r="4" fill="#d62728"/>
<text x="503.78" y="108.55" font-size="10" font-family="Helvetica">43</text>
<circle cx="534.44" cy="128.07" r="4" fill="#d62728"/>
<text x="540.44" y="122.07" font-size="10" font-family="Helvetica">46</text>
<circle cx="558.89" cy="106.52" r="4" fill="#d62728"/>
<text x="564.89" y="100.52" font-size="10" font-family="Helvetica">48</text>
<circle cx="607.78" cy="121.26" r="4" fill="#d62728"/>
<text x="613.78" y="115.26" font-size="10" font-family="Helvetica">52</text>
<circle cx="681.11" cy="108.06" r="4" fill="#d62728"/>
<text x="687.11" y="102.06" font-size="10" font-family="Helvetica">58</text>
<circle cx="730.00" cy="120.08" r="4" fill="#d62728"/>
<text x="736.00" y="114.08" font-size="10" font-family="Helvetica">62</text>
<circle cx="778.89" cy="136.95" r="4" fill="#d62728"/>
<text x="784.89" y="130.95" font-size="10" font-family="Helvetica">66</text>
<circle cx="815.56" cy="116.46" r="4" fill="#d62728"/>
<text x="821.56" y="110.46" font-size="10" font-family="Helvetica">69</text>
<circle cx="852.22" cy="121.63" r="4" fill="#d62728"/>
<text x="858.22" y="115.63" font-size="10" font-family="Helvetica">72</text>
<circle cx="925.56" cy="120.92" r="4" fill="#d62728"/>
<text x="931.56" y="114.92" font-size="10" font-family="Helvetica">78</text>
<line x1="70.00" y1="398" x2="70.00" y2="403" stroke="black"/>
<text x="70.00" y="418" font-size="10" text-anchor="middle" font-family="Helvetica">8</text>
<line x1="118.89" y1="398" x2="118.89" y2="403" stroke="black"/>
<text x="118.89" y="418" font-size="10" text-anchor="middle" font-family="Helvetica">12</text>
<line x1="167.78" y1="398" x2="167.78" y2="403" stroke="black"/>
<text x="167.78" y="418" font-size="10" text-anchor="middle" font-family="Helvetica">16</text>
<line x1="216.67" y1="398" x2="216.67" y2="403" stroke="black"/>
<text x="216.67" y="418" font-size="10" text-anchor="middle" font-family="Helvetica">20</text>
<line x1="265.56" y1="398" x2="265.56" y2="403" stroke="black"/>
<text x="265.56" y="418" font-size="10" text-anchor="middle" font-family="Helvetica">24</text>
<line x1="314.44" y1="398" x2="314.44" y2="403" stroke="black"/>
<text x="314.44" y="418" font-size="10" text-anchor="middle" font-family="Helvetica">28</text>
<line x1="363.33" y1="398" x2="363.33" y2="403" stroke="black"/>
<text x="363.33" y="418" font-size="10" text-anchor="middle" font-family="Helvetica">32</text>
<line x1="412.22" y1="398" x2="412.22" y2="403" stroke="black"/>
<text x="412.22" y="418" font-size="10" text-anchor="middle" font-family="Helvetica">36</text>
<line x1="461.11" y1="398" x2="461.11" y2="403" stroke="black"/>
<text x="461.11" y="418" font-size="10" text-anchor="middle" font-family="Helvetica">40</text>
<line x1="510.00" y1="398" x2="510.00" y2="403" stroke="black"/>
<text x="510.00" y="418" font-size="10" text-anchor="middle" font-family="Helvetica">44</text>
<line x1="558.89" y1="398" x2="558.89" y2="403" stroke="black"/>
<text x="558.89" y="418" font-size="10" text-anchor="middle" font-family="Helvetica">48</text>
<line x1="607.78" y1="398" x2="607.78" y2="403" stroke="black"/>
<text x="607.78" y="418" font-size="10" text-anchor="middle" font-family="Helvetica">52</text>
<line x1="656.67" y1="398" x2="656.67" y2="403" stroke="black"/>
<text x="656.67" y="418" font-size="10" text-anchor="middle" font-family="Helvetica">56</text>
<line x1="705.56" y1="398" x2="705.56" y2="403" stroke="black"/>
<text x="705.56" y="418" font-size="10" text-anchor="middle" font-family="Helvetica">60</text>
<line x1="754.44" y1="398" x2="754.44" y2="403" stroke="black"/>
<text x="754.44" y="418" font-size="10" text-anchor="middle" font-family="Helvetica">64</text>
<line x1="803.33" y1="398" x2="803.33" y2="403" stroke="black"/>
<text x="803.33" y="418" font-size="10" text-anchor="middle" font-family="Helvetica">68</text>
<line x1="852.22" y1="398" x2="852.22" y2="403" stroke="black"/>
<text x="852.22" y="418" font-size="10" text-anchor="middle" font-family="Helvetica">72</text>
<line x1="901.11" y1="398" x2="901.11" y2="403" stroke="black"/>
<text x="901.11" y="418" font-size="10" text-anchor="middle" font-family="Helvetica">76</text>
<line x1="950.00" y1="398" x2="950.00" y2="403" stroke="black"/>
<text x="950.00" y="418" font-size="10" text-anchor="middle" font-family="Helvetica">80</text>
<line x1="65" y1="398.00" x2="70" y2="398.00" stroke="black"/>
<text x="62" y="402.00" text-anchor="end" font-size="10" font-family="Helvetica">0.563</text>
<line x1="65" y1="309.00" x2="70" y2="309.00" stroke="black"/>
<text x="62" y="313.00" text-anchor="end" font-size="10" font-family="Helvetica">0.617</text>
<line x1="65" y1="220.00" x2="70" y2="220.00" stroke="black"/>
<text x="62" y="224.00" text-anchor="end" font-size="10" font-family="Helvetica">0.67</text>
<line x1="65" y1="131.00" x2="70" y2="131.00" stroke="black"/>
<text x="62" y="135.00" text-anchor="end" font-size="10" font-family="Helvetica">0.724</text>
<line x1="65" y1="42.00" x2="70" y2="42.00" stroke="black"/>
<text x="62" y="46.00" text-anchor="end" font-size="10" font-family="Helvetica">0.777</text>
<text x="490.0" y="444" text-anchor="middle" font-size="13" font-family="Helvetica">n_bands</text>
<text x="20" y="230.0" text-anchor="middle" transform="rotate(-90 20 230.0)" font-size="13" font-family="Helvetica">silhouette_best</text>
</svg>
