<svg xmlns="http://www.w3.org/2000/svg" width="980" height="460" viewBox="0 0 980 460">
<rect width="100%" height="100%" fill="white"/>
<text x="490.0" y="24" text-anchor="middle" font-size="18" font-family="Helvetica">score vs n_bands: mean_top10_anova_block</text>
<line x1="70" y1="398" x2="950" y2="398" stroke="black"/>
<line x1="70" y1="42" x2="70" y2="398" stroke="black"/>
<rect x="791.11" y="42" width="24.44" height="356" fill="#f0f0f0" opacity="0.45"/>
<rect x="876.67" y="42" width="24.44" height="356" fill="#f0f0f0" opacity="0.45"/>
<polyline fill="none" stroke="#1f77b4" stroke-width="2" points="70.00,376.02 82.22,398.00 94.44,347.17 106.67,253.79 118.89,288.69 131.11,200.94 143.33,152.92 155.56,222.82 167.78,254.26 180.00,238.34 192.22,214.44 204.44,124.48 216.67,104.02 228.89,172.36 241.11,202.98 253.33,223.28 265.56,222.17 277.78,192.19 290.00,175.01 302.22,99.22 314.44,97.81 326.67,116.92 338.89,96.04 351.11,103.63 363.33,117.74 375.56,152.16 387.78,156.57 400.00,108.04 412.22,98.26 424.44,97.51 436.67,89.03 448.89,120.62 461.11,135.82 473.33,69.46 485.56,59.58 497.78,67.03 510.00,86.92 522.22,102.44 534.44,85.75 546.67,105.55 558.89,126.81 571.11,80.16 583.33,64.30 595.56,95.63 607.78,80.21 620.00,77.71 632.22,100.16 644.44,84.87 656.67,73.12 668.89,102.26 681.11,114.30 693.33,83.43 705.56,77.77 717.78,59.42 730.00,48.04 742.22,68.50 754.44,86.75 766.67,105.07 778.89,93.27 791.11,81.88 803.33,77.44 815.56,77.74 827.78,89.11 840.00,77.41 852.22,58.09 864.44,72.05 876.67,95.91 888.89,92.78 901.11,87.08 913.33,57.50 925.56,42.00 937.78,69.91 950.00,91.86"/>
<circle cx="106.67" cy="253.79" r="4" fill="#d62728"/>
<text x="112.67" y="247.79" font-size="10" font-family="Helvetica">11</text>
<circle cx="143.33" cy="152.92" r="4" fill="#d62728"/>
<text x="149.33" y="146.92" font-size="10" font-family="Helvetica">14</text>
<circle cx="216.67" cy="104.02" r="4" fill="#d62728"/>
<text x="222.67" y="98.02" font-size="10" font-family="Helvetica">20</text>
<circle cx="314.44" cy="97.81" r="4" fill="#d62728"/>
<text x="320.44" y="91.81" font-size="10" font-family="Helvetica">28</text>
<circle cx="338.89" cy="96.04" r="4" fill="#d62728"/>
<text x="344.89" y="90.04" font-size="10" font-family="Helvetica">30</text>
<circle cx="436.67" cy="89.03" r="4" fill="#d62728"/>
<text x="442.67" y="83.03" font-size="10" font-family="Helvetica">38</text>
<circle cx="485.56" cy="59.58" r="4" fill="#d62728"/>
<text x="491.56" y="53.58" font-size="10" font-family="Helvetica">42</text>
<circle cx="534.44" cy="85.75" r="4" fill="#d62728"/>
<text x="540.44" y="79.75" font-size="10" font-family="Helvetica">46</text>
<circle cx="583.33" cy="64.30" r="4" fill="#d62728"/>
<text x="589.33" y="58.30" font-size="10" font-family="Helvetica">50</text>
<circle cx="620.00" cy="77.71" r="4" fill="#d62728"/>
<text x="626.00" y="71.71" font-size="10" font-family="Helvetica">53</text>
<circle cx="656.67" cy="73.12" r="4" fill="#d62728"/>
<text x="662.67" y="67.12" font-size="10" font-family="Helvetica">56</text>
<circle cx="730.00" cy="48.04" r="4" fill="#d62728"/>
<text x="736.00" y="42.04" font-size="10" font-family="Helvetica">62</text>
<circle cx="803.33" cy="77.44" r="4" fill="#d62728"/>
<text x="809.33" y="71.44" font-size="10" font-family="Helvetica">68</text>
<circle cx="852.22" cy="58.09" r="4" fill="#d62728"/>
<text x="858.22" y="52.09" font-size="10" font-family="Helvetica">72</text>
<circle cx="925.56" cy="42.00" r="4" fill="#d62728"/>
<text x="931.56" y="36.00" font-size="10" font-family="Helvetica">78</text>
<line x1="70.00" y1="398" x2="70.00" y2="403" stroke="black"/>
<text x="70.00" y="418" font-size="10" text-anchor="middle" font-family="Helvetica">8</text>
<line x1="118.89" y1="398" x2="118.89" y2="403" stroke="black"/>
<text x="118.89" y="418" font-size="10" text-anchor="middle" font-family="Helvetica">12</text>
<line x1="167.78" y1="398" x2="167.78" y2="403" stroke="black"/>
<text x="167.78" y="418" font-size="10" text-anchor="middle" font-family="Helvetica">16</text>
<line x1="216.67" y1="398" x2="216.67" y2="403" stroke="black"/>
<text x="216.67" y="418" font-size="10" text-anchor="middle" font-family="Helvetica">20</text>
<line x1="265.56" y1="398" x2="265.56" y2="403" stroke="black"/>
<text x="265.56" y="418" font-size="10" text-anchor="middle" font-family="Helvetica">24</text>
<line x1="314.44" y1="398" x2="314.44" y2="403" stroke="black"/>
<text x="314.44" y="418" font-size="10" text-anchor="middle" font-family="Helvetica">28</text>
<line x1="363.33" y1="398" x2="363.33" y2="403" stroke="black"/>
<text x="363.33" y="418" font-size="10" text-anchor="middle" font-family="Helvetica">32</text>
<line x1="412.22" y1="398" x2="412.22" y2="403" stroke="black"/>
<text x="412.22" y="418" font-size="10" text-anchor="middle" font-family="Helvetica">36</text>
<line x1="461.11" y1="398" x2="461.11" y2="403" stroke="black"/>
<text x="461.11" y="418" font-size="10" text-anchor="middle" font-family="Helvetica">40</text>
<line x1="510.00" y1="398" x2="510.00" y2="403" stroke="black"/>
<text x="510.00" y="418" font-size="10" text-anchor="middle" font-family="Helvetica">44</text>
<line x1="558.89" y1="398" x2="558.89" y2="403" stroke="black"/>
<text x="558.89" y="418" font-size="10" text-anchor="middle" font-family="Helvetica">48</text>
<line x1="607.78" y1="398" x2="607.78" y2="403" stroke="black"/>
<text x="607.78" y="418" font-size="10" text-anchor="middle" font-family="Helvetica">52</text>
<line x1="656.67" y1="398" x2="656.67" y2="403" stroke="black"/>
<text x="656.67" y="418" font-size="10" text-anchor="middle" font-family="Helvetica">56</text>
<line x1="705.56" y1="398" x2="705.56" y2="403" stroke="black"/>
<text x="705.56" y="418" font-size="10" text-anchor="middle" font-family="Helvetica">60</text>
<line x1="754.44" y1="398" x2="754.44" y2="403" stroke="black"/>
<text x="754.44" y="418" font-size="10" text-anchor="middle" font-family="Helvetica">64</text>
<line x1="803.33" y1="398" x2="803.33" y2="403" stroke="black"/>
<text x="803.33" y="418" font-size="10" text-anchor="middle" font-family="Helvetica">68</text>
<line x1="852.22" y1="398" x2="852.22" y2="403" stroke="black"/>
<text x="852.22" y="418" font-size="10" text-anchor="middle" font-family="Helvetica">72</text>
<line x1="901.11" y1="398" x2="901.11" y2="403" stroke="black"/>
<text x="901.11" y="418" font-size="10" text-anchor="middle" font-family="Helvetica">76</text>
<line x1="950.00" y1="398" x2="950.00" y2="403" stroke="black"/>
<text x="950.00" y="418" font-size="10" text-anchor="middle" font-family="Helvetica">80</text>
<line x1="65" y1="398.00" x2="70" y2="398.00" stroke="black"/>
<text x="62" y="402.00" text-anchor="end" font-size="10" font-family="Helvetica">2.66</text>
<line x1="65" y1="309.00" x2="70" y2="309.00" stroke="black"/>
<text x="62" y="313.00" text-anchor="end" font-size="10" font-family="Helvetica">3.85</text>
<line x1="65" y1="220.00" x2="70" y2="220.00" stroke="black"/>
<text x="62" y="224.00" text-anchor="end" font-size="10" font-family="Helvetica">5.04</text>
<line x1="65" y1="131.00" x2="70" y2="131.00" stroke="black"/>
<text x="62" y="135.00" text-anchor="end" font-size="10" font-family="Helvetica">6.23</text>
<line x1="65" y1="42.00" x2="70" y2="42.00" stroke="black"/>
<text x="62" y="46.00" text-anchor="end" font-size="10" font-family="Helvetica">7.42</text>
<text x="490.0" y="444" text-anchor="middle" font-size="13" font-family="Helvetica">n_bands</text>
<text x="20" y="230.0" text-anchor="middle" transform="rotate(-90 20 230.0)" font-size="13" font-family="Helvetica">mean_top10_anova_block</text>
</svg>
