<svg xmlns="http://www.w3.org/2000/svg" width="980" height="460" viewBox="0 0 980 460">
<rect width="100%" height="100%" fill="white"/>
<text x="490.0" y="24" text-anchor="middle" font-size="18" font-family="Helvetica">score vs n_bands: periodicity_strength</text>
<line x1="70" y1="398" x2="950" y2="398" stroke="black"/>
<line x1="70" y1="42" x2="70" y2="398" stroke="black"/>
<rect x="436.67" y="42" width="73.33" height="356" fill="#f0f0f0" opacity="0.45"/>
<rect x="473.33" y="42" width="24.44" height="356" fill="#f0f0f0" opacity="0.45"/>
<rect x="473.33" y="42" width="48.89" height="356" fill="#f0f0f0" opacity="0.45"/>
<rect x="461.11" y="42" width="97.78" height="356" fill="#f0f0f0" opacity="0.45"/>
<rect x="485.56" y="42" width="73.33" height="356" fill="#f0f0f0" opacity="0.45"/>
<rect x="497.78" y="42" width="73.33" height="356" fill="#f0f0f0" opacity="0.45"/>
<rect x="510.00" y="42" width="73.33" height="356" fill="#f0f0f0" opacity="0.45"/>
<rect x="485.56" y="42" width="146.67" height="356" fill="#f0f0f0" opacity="0.45"/>
<rect x="497.78" y="42" width="146.67" height="356" fill="#f0f0f0" opacity="0.45"/>
<rect x="510.00" y="42" width="146.67" height="356" fill="#f0f0f0" opacity="0.45"/>
<rect x="534.44" y="42" width="122.22" height="356" fill="#f0f0f0" opacity="0.45"/>
<rect x="534.44" y="42" width="146.67" height="356" fill="#f0f0f0" opacity="0.45"/>
<rect x="546.67" y="42" width="146.67" height="356" fill="#f0f0f0" opacity="0.45"/>
<rect x="534.44" y="42" width="195.56" height="356" fill="#f0f0f0" opacity="0.45"/>
<rect x="546.67" y="42" width="195.56" height="356" fill="#f0f0f0" opacity="0.45"/>
<rect x="558.89" y="42" width="195.56" height="356" fill="#f0f0f0" opacity="0.45"/>
<rect x="571.11" y="42" width="195.56" height="356" fill="#f0f0f0" opacity="0.45"/>
<rect x="583.33" y="42" width="195.56" height="356" fill="#f0f0f0" opacity="0.45"/>
<rect x="571.11" y="42" width="244.44" height="356" fill="#f0f0f0" opacity="0.45"/>
<rect x="607.78" y="42" width="195.56" height="356" fill="#f0f0f0" opacity="0.45"/>
<rect x="620.00" y="42" width="195.56" height="356" fill="#f0f0f0" opacity="0.45"/>
<rect x="595.56" y="42" width="268.89" height="356" fill="#f0f0f0" opacity="0.45"/>
<rect x="607.78" y="42" width="268.89" height="356" fill="#f0f0f0" opacity="0.45"/>
<rect x="632.22" y="42" width="244.44" height="356" fill="#f0f0f0" opacity="0.45"/>
<rect x="632.22" y="42" width="268.89" height="356" fill="#f0f0f0" opacity="0.45"/>
<rect x="644.44" y="42" width="268.89" height="356" fill="#f0f0f0" opacity="0.45"/>
<rect x="656.67" y="42" width="268.89" height="356" fill="#f0f0f0" opacity="0.45"/>
<rect x="668.89" y="42" width="268.89" height="356" fill="#f0f0f0" opacity="0.45"/>
<rect x="681.11" y="42" width="268.89" height="356" fill="#f0f0f0" opacity="0.45"/>
<rect x="717.78" y="42" width="220.00" height="356" fill="#f0f0f0" opacity="0.45"/>
<rect x="730.00" y="42" width="220.00" height="356" fill="#f0f0f0" opacity="0.45"/>
<rect x="717.78" y="42" width="268.89" height="356" fill="#f0f0f0" opacity="0.45"/>
<rect x="754.44" y="42" width="220.00" height="356" fill="#f0f0f0" opacity="0.45"/>
<rect x="766.67" y="42" width="220.00" height="356" fill="#f0f0f0" opacity="0.45"/>
<rect x="803.33" y="42" width="171.11" height="356" fill="#f0f0f0" opacity="0.45"/>
<rect x="791.11" y="42" width="220.00" height="356" fill="#f0f0f0" opacity="0.45"/>
<rect x="803.33" y="42" width="220.00" height="356" fill="#f0f0f0" opacity="0.45"/>
<rect x="840.00" y="42" width="171.11" height="356" fill="#f0f0f0" opacity="0.45"/>
<rect x="852.22" y="42" width="171.11" height="356" fill="#f0f0f0" opacity="0.45"/>
<polyline fill="none" stroke="#1f77b4" stroke-width="2" points="70.00,168.30 82.22,192.47 94.44,42.00 106.67,71.60 118.89,243.18 131.11,258.31 143.33,145.65 155.56,167.57 167.78,291.04 180.00,296.27 192.22,221.01 204.44,230.50 216.67,313.83 228.89,320.90 241.11,263.94 253.33,269.48 265.56,330.64 277.78,333.29 290.00,294.66 302.22,300.61 314.44,343.04 326.67,344.85 338.89,319.80 351.11,322.80 363.33,353.15 375.56,355.60 387.78,339.20 400.00,341.03 412.22,362.08 424.44,363.39 436.67,352.91 448.89,354.91 461.11,367.89 473.33,369.15 485.56,364.48 497.78,365.29 510.00,372.16 522.22,373.06 534.44,371.80 546.67,373.03 558.89,377.33 571.11,377.92 583.33,378.35 595.56,378.94 607.78,381.03 620.00,381.87 632.22,383.71 644.44,384.35 656.67,384.29 668.89,384.53 681.11,386.98 693.33,387.59 705.56,386.85 717.78,387.32 730.00,390.18 742.22,390.52 754.44,389.45 766.67,389.76 778.89,392.42 791.11,392.75 803.33,391.45 815.56,391.90 827.78,394.56 840.00,394.67 852.22,393.63 864.44,393.99 876.67,396.46 888.89,396.70 901.11,395.32 913.33,395.56 925.56,397.83 937.78,398.00 950.00,396.65"/>
<circle cx="94.44" cy="42.00" r="4" fill="#d62728"/>
<text x="100.44" y="36.00" font-size="10" font-family="Helvetica">10</text>
<circle cx="143.33" cy="145.65" r="4" fill="#d62728"/>
<text x="149.33" y="139.65" font-size="10" font-family="Helvetica">14</text>
<circle cx="192.22" cy="221.01" r="4" fill="#d62728"/>
<text x="198.22" y="215.01" font-size="10" font-family="Helvetica">18</text>
<circle cx="241.11" cy="263.94" r="4" fill="#d62728"/>
<text x="247.11" y="257.94" font-size="10" font-family="Helvetica">22</text>
<circle cx="290.00" cy="294.66" r="4" fill="#d62728"/>
<text x="296.00" y="288.66" font-size="10" font-family="Helvetica">26</text>
<circle cx="338.89" cy="319.80" r="4" fill="#d62728"/>
<text x="344.89" y="313.80" font-size="10" font-family="Helvetica">30</text>
<circle cx="387.78" cy="339.20" r="4" fill="#d62728"/>
<text x="393.78" y="333.20" font-size="10" font-family="Helvetica">34</text>
<circle cx="436.67" cy="352.91" r="4" fill="#d62728"/>
<text x="442.67" y="346.91" font-size="10" font-family="Helvetica">38</text>
<circle cx="485.56" cy="364.48" r="4" fill="#d62728"/>
<text x="491.56" y="358.48" font-size="10" font-family="Helvetica">42</text>
<circle cx="534.44" cy="371.80" r="4" fill="#d62728"/>
<text x="540.44" y="365.80" font-size="10" font-family="Helvetica">46</text>
<circle cx="656.67" cy="384.29" r="4" fill="#d62728"/>
<text x="662.67" y="378.29" font-size="10" font-family="Helvetica">56</text>
<circle cx="705.56" cy="386.85" r="4" fill="#d62728"/>
<text x="711.56" y="380.85" font-size="10" font-family="Helvetica">60</text>
<circle cx="754.44" cy="389.45" r="4" fill="#d62728"/>
<text x="760.44" y="383.45" font-size="10" font-family="Helvetica">64</text>
<circle cx="803.33" cy="391.45" r="4" fill="#d62728"/>
<text x="809.33" y="385.45" font-size="10" font-family="Helvetica">68</text>
<circle cx="852.22" cy="393.63" r="4" fill="#d62728"/>
<text x="858.22" y="387.63" font-size="10" font-family="Helvetica">72</text>
<circle cx="901.11" cy="395.32" r="4" fill="#d62728"/>
<text x="907.11" y="389.32" font-size="10" font-family="Helvetica">76</text>
<line x1="70.00" y1="398" x2="70.00" y2="403" stroke="black"/>
<text x="70.00" y="418" font-size="10" text-anchor="middle" font-family="Helvetica">8</text>
<line x1="118.89" y1="398" x2="118.89" y2="403" stroke="black"/>
<text x="118.89" y="418" font-size="10" text-anchor="middle" font-family="Helvetica">12</text>
<line x1="167.78" y1="398" x2="167.78" y2="403" stroke="black"/>
<text x="167.78" y="418" font-size="10" text-anchor="middle" font-family="Helvetica">16</text>
<line x1="216.67" y1="398" x2="216.67" y2="403" stroke="black"/>
<text x="216.67" y="418" font-size="10" text-anchor="middle" font-family="Helvetica">20</text>
<line x1="265.56" y1="398" x2="265.56" y2="403" stroke="black"/>
<text x="265.56" y="418" font-size="10" text-anchor="middle" font-family="Helvetica">24</text>
<line x1="314.44" y1="398" x2="314.44" y2="403" stroke="black"/>
<text x="314.44" y="418" font-size="10" text-anchor="middle" font-family="Helvetica">28</text>
<line x1="363.33" y1="398" x2="363.33" y2="403" stroke="black"/>
<text x="363.33" y="418" font-size="10" text-anchor="middle" font-family="Helvetica">32</text>
<line x1="412.22" y1="398" x2="412.22" y2="403" stroke="black"/>
<text x="412.22" y="418" font-size="10" text-anchor="middle" font-family="Helvetica">36</text>
<line x1="461.11" y1="398" x2="461.11" y2="403" stroke="black"/>
<text x="461.11" y="418" font-size="10" text-anchor="middle" font-family="Helvetica">40</text>
<line x1="510.00" y1="398" x2="510.00" y2="403" stroke="black"/>
<text x="510.00" y="418" font-size="10" text-anchor="middle" font-family="Helvetica">44</text>
<line x1="558.89" y1="398" x2="558.89" y2="403" stroke="black"/>
<text x="558.89" y="418" font-size="10" text-anchor="middle" font-family="Helvetica">48</text>
<line x1="607.78" y1="398" x2="607.78" y2="403" stroke="black"/>
<text x="607.78" y="418" font-size="10" text-anchor="middle" font-family="Helvetica">52</text>
<line x1="656.67" y1="398" x2="656.67" y2="403" stroke="black"/>
<text x="656.67" y="418" font-size="10" text-anchor="middle" font-family="Helvetica">56</text>
<line x1="705.56" y1="398" x2="705.56" y2="403" stroke="black"/>
<text x="705.56" y="418" font-size="10" text-anchor="middle" font-family="Helvetica">60</text>
<line x1="754.44" y1="398" x2="754.44" y2="403" stroke="black"/>
<text x="754.44" y="418" font-size="10" text-anchor="middle" font-family="Helvetica">64</text>
<line x1="803.33" y1="398" x2="803.33" y2="403" stroke="black"/>
<text x="803.33" y="418" font-size="10" text-anchor="middle" font-family="Helvetica">68</text>
<line x1="852.22" y1="398" x2="852.22" y2="403" stroke="black"/>
<text x="852.22" y="418" font-size="10" text-anchor="middle" font-family="Helvetica">72</text>
<line x1="901.11" y1="398" x2="901.11" y2="403" stroke="black"/>
<text x="901.11" y="418" font-size="10" text-anchor="middle" font-family="Helvetica">76</text>
<line x1="950.00" y1="398" x2="950.00" y2="403" stroke="black"/>
<text x="950.00" y="418" font-size="10" text-anchor="middle" font-family="Helvetica">80</text>
<line x1="65" y1="398.00" x2="70" y2="398.00" stroke="black"/>
<text x="62" y="402.00" text-anchor="end" font-size="10" font-family="Helvetica">4e+06</text>
<line x1="65" y1="309.00" x2="70" y2="309.00" stroke="black"/>
<text x="62" y="313.00" text-anchor="end" font-size="10" font-family="Helvetica">2.84e+07</text>
<line x1="65" y1="220.00" x2="70" y2="220.00" stroke="black"/>
<text x="62" y="224.00" text-anchor="end" font-size="10" font-family="Helvetica">5.28e+07</text>
<line x1="65" y1="131.00" x2="70" y2="131.00" stroke="black"/>
<text x="62" y="135.00" text-anchor="end" font-size="10" font-family="Helvetica">7.71e+07</text>
<line x1="65" y1="42.00" x2="70" y2="42.00" stroke="black"/>
<text x="62" y="46.00" text-anchor="end" font-size="10" font-family="Helvetica">1.02e+08</text>
<text x="490.0" y="444" text-anchor="middle" font-size="13" font-family="Helvetica">n_bands</text>
<text x="20" y="230.0" text-anchor="middle" transform="rotate(-90 20 230.0)" font-size="13" font-family="Helvetica">periodicity_strength</text>
</svg>
