<svg xmlns="http://www.w3.org/2000/svg" width="760" height="320">
<rect width="100%" height="100%" fill="white"/>
<text x="40" y="24" font-family="Helvetica" font-size="14">effective_rank vs K (no smoothing)</text>
<line x1="40" y1="280" x2="720" y2="280" stroke="black"/>
<line x1="40" y1="40" x2="40" y2="280" stroke="black"/>
<polyline fill="none" stroke="#1f77b4" stroke-width="1.5" points="40.00,280.00 53.60,251.63 67.20,223.58 80.80,214.38 94.40,207.08 108.00,197.33 121.60,184.92 135.20,179.78 148.80,181.10 162.40,159.54 176.00,136.09 189.60,110.85 203.20,104.47 216.80,95.45 230.40,93.94 244.00,86.76 257.60,89.98 271.20,96.25 284.80,89.04 298.40,88.13 312.00,83.94 325.60,75.95 339.20,70.49 352.80,59.86 366.40,53.37 380.00,53.21 393.60,45.09 407.20,40.00 420.80,40.00 434.40,40.00 448.00,40.00 461.60,40.00 475.20,40.00 488.80,40.00 502.40,40.00 516.00,40.00 529.60,40.00 543.20,40.00 556.80,40.00 570.40,40.00 584.00,40.00 597.60,40.00 611.20,40.00 624.80,40.00 638.40,40.00 652.00,40.00 665.60,40.00 679.20,40.00 692.80,40.00 706.40,40.00 720.00,40.00"/>
<text x="380" y="312" text-anchor="middle" font-size="11" font-family="Helvetica">K</text>
<text x="14" y="160" transform="rotate(-90 14,160)" text-anchor="middle" font-size="11" font-family="Helvetica">value</text>
</svg>
