<svg xmlns="http://www.w3.org/2000/svg" width="900" height="450" viewBox="0 0 900 450">
<rect x="0" y="0" width="100%" height="100%" fill="white"/>
<text x="450.0" y="24" font-size="18" text-anchor="middle" font-family="Helvetica">K vs periodicity_strength</text>
<line x1="70" y1="390" x2="880" y2="390" stroke="black"/>
<line x1="70" y1="40" x2="70" y2="390" stroke="black"/>
<polyline fill="none" stroke="#1f77b4" stroke-width="2" points="70.00,40.00 110.50,57.97 151.00,239.35 191.50,253.99 232.00,155.97 272.50,166.92 313.00,292.73 353.50,300.58 394.00,237.92 434.50,249.87 475.00,327.47 515.50,334.97 556.00,307.09 596.50,311.91 637.00,352.99 677.50,358.38 718.00,350.83 758.50,358.18 799.00,383.86 839.50,387.41 880.00,390.00"/>
<text x="450.0" y="435" font-size="14" text-anchor="middle" font-family="Helvetica">K</text>
<text x="20" y="225.0" font-size="14" text-anchor="middle" transform="rotate(-90 20 225.0)" font-family="Helvetica">periodicity_strength</text>
<line x1="70.00" y1="390" x2="70.00" y2="395" stroke="black"/>
<text x="70.00" y="410" font-size="11" text-anchor="middle" font-family="Helvetica">30</text>
<line x1="110.50" y1="390" x2="110.50" y2="395" stroke="black"/>
<line x1="151.00" y1="390" x2="151.00" y2="395" stroke="black"/>
<text x="151.00" y="410" font-size="11" text-anchor="middle" font-family="Helvetica">32</text>
<line x1="191.50" y1="390" x2="191.50" y2="395" stroke="black"/>
<line x1="232.00" y1="390" x2="232.00" y2="395" stroke="black"/>
<text x="232.00" y="410" font-size="11" text-anchor="middle" font-family="Helvetica">34</text>
<line x1="272.50" y1="390" x2="272.50" y2="395" stroke="black"/>
<line x1="313.00" y1="390" x2="313.00" y2="395" stroke="black"/>
<text x="313.00" y="410" font-size="11" text-anchor="middle" font-family="Helvetica">36</text>
<line x1="353.50" y1="390" x2="353.50" y2="395" stroke="black"/>
<line x1="394.00" y1="390" x2="394.00" y2="395" stroke="black"/>
<text x="394.00" y="410" font-size="11" text-anchor="middle" font-family="Helvetica">38</text>
<line x1="434.50" y1="390" x2="434.50" y2="395" stroke="black"/>
<line x1="475.00" y1="390" x2="475.00" y2="395" stroke="black"/>
<text x="475.00" y="410" font-size="11" text-anchor="middle" font-family="Helvetica">40</text>
<line x1="515.50" y1="390" x2="515.50" y2="395" stroke="black"/>
<line x1="556.00" y1="390" x2="556.00" y2="395" stroke="black"/>
<text x="556.00" y="410" font-size="11" text-anchor="middle" font-family="Helvetica">42</text>
<line x1="596.50" y1="390" x2="596.50" y2="395" stroke="black"/>
<line x1="637.00" y1="390" x2="637.00" y2="395" stroke="black"/>
<text x="637.00" y="410" font-size="11" text-anchor="middle" font-family="Helvetica">44</text>
<line x1="677.50" y1="390" x2="677.50" y2="395" stroke="black"/>
<line x1="718.00" y1="390" x2="718.00" y2="395" stroke="black"/>
<text x="718.00" y="410" font-size="11" text-anchor="middle" font-family="Helvetica">46</text>
<line x1="758.50" y1="390" x2="758.50" y2="395" stroke="black"/>
<line x1="799.00" y1="390" x2="799.00" y2="395" stroke="black"/>
<text x="799.00" y="410" font-size="11" text-anchor="middle" font-family="Helvetica">48</text>
<line x1="839.50" y1="390" x2="839.50" y2="395" stroke="black"/>
<line x1="880.00" y1="390" x2="880.00" y2="395" stroke="black"/>
<text x="880.00" y="410" font-size="11" text-anchor="middle" font-family="Helvetica">50</text>
<line x1="65" y1="390.00" x2="70" y2="390.00" stroke="black"/>
<text x="62" y="394.00" font-size="10" text-anchor="end" font-family="Helvetica">9.38e+06</text>
<line x1="65" y1="302.50" x2="70" y2="302.50" stroke="black"/>
<text x="62" y="306.50" font-size="10" text-anchor="end" font-family="Helvetica">1.34e+07</text>
<line x1="65" y1="215.00" x2="70" y2="215.00" stroke="black"/>
<text x="62" y="219.00" font-size="10" text-anchor="end" font-family="Helvetica">1.74e+07</text>
<line x1="65" y1="127.50" x2="70" y2="127.50" stroke="black"/>
<text x="62" y="131.50" font-size="10" text-anchor="end" font-family="Helvetica">2.14e+07</text>
<line x1="65" y1="40.00" x2="70" y2="40.00" stroke="black"/>
<text x="62" y="44.00" font-size="10" text-anchor="end" font-family="Helvetica">2.54e+07</text>
<circle cx="232.00" cy="155.97" r="4" fill="#d62728"/>
<text x="238.00" y="149.97" font-size="10" font-family="Helvetica">K=34</text>
<circle cx="394.00" cy="237.92" r="4" fill="#d62728"/>
<text x="400.00" y="231.92" font-size="10" font-family="Helvetica">K=38</text>
<circle cx="556.00" cy="307.09" r="4" fill="#d62728"/>
<text x="562.00" y="301.09" font-size="10" font-family="Helvetica">K=42</text>
<circle cx="718.00" cy="350.83" r="4" fill="#d62728"/>
<text x="724.00" y="344.83" font-size="10" font-family="Helvetica">K=46</text>
</svg>
