<svg xmlns="http://www.w3.org/2000/svg" width="760" height="320">
<rect width="100%" height="100%" fill="white"/>
<text x="40" y="24" font-family="Helvetica" font-size="14">S2 summary curves</text>
<line x1="40" y1="280" x2="720" y2="280" stroke="black"/>
<line x1="40" y1="40" x2="40" y2="280" stroke="black"/>
<polyline fill="none" stroke="#1f77b4" stroke-width="1.4" points="40.00,280.00 51.53,164.51 63.05,164.58 74.58,164.77 86.10,164.60 97.63,164.64 109.15,164.78 120.68,164.65 132.20,164.69 143.73,164.49 155.25,163.79 166.78,163.75 178.31,163.84 189.83,163.93 201.36,164.07 212.88,164.17 224.41,164.15 235.93,164.20 247.46,164.23 258.98,164.20 270.51,163.85 282.03,163.87 293.56,163.87 305.08,163.88 316.61,163.95 328.14,163.93 339.66,163.91 351.19,164.00 362.71,164.03 374.24,164.05 385.76,163.80 397.29,163.82 408.81,163.85 420.34,163.90 431.86,163.93 443.39,163.94 454.92,163.98 466.44,163.99 477.97,164.00 489.49,164.03 501.02,163.87 512.54,163.86 524.07,163.86 535.59,163.87 547.12,163.86 558.64,163.85 570.17,163.86 581.69,163.89 593.22,163.88 604.75,163.87 616.27,163.73 627.80,163.75 639.32,163.78 650.85,163.80 662.37,163.82 673.90,163.82 685.42,163.84 696.95,163.84 708.47,163.86 720.00,163.87"/>
<text x="540" y="54" font-size="11" fill="#1f77b4" font-family="Helvetica">mean_cond</text>
<polyline fill="none" stroke="#d62728" stroke-width="1.4" points="40.00,280.00 51.53,280.00 63.05,280.00 74.58,280.00 86.10,280.00 97.63,244.96 109.15,244.95 120.68,244.70 132.20,244.63 143.73,244.74 155.25,248.79 166.78,250.38 178.31,251.72 189.83,252.50 201.36,252.96 212.88,253.26 224.41,253.07 235.93,253.15 247.46,252.96 258.98,253.26 270.51,253.16 282.03,253.42 293.56,254.20 305.08,254.26 316.61,254.46 328.14,254.47 339.66,254.62 351.19,254.25 362.71,255.21 374.24,254.61 385.76,255.06 397.29,254.61 408.81,254.15 420.34,255.23 431.86,253.95 443.39,255.01 454.92,254.33 466.44,255.16 477.97,254.90 489.49,254.77 501.02,255.31 512.54,255.46 524.07,254.86 535.59,254.97 547.12,255.28 558.64,255.45 570.17,254.73 581.69,255.07 593.22,255.12 604.75,255.02 616.27,255.01 627.80,255.48 639.32,256.05 650.85,255.21 662.37,255.65 673.90,255.51 685.42,255.13 696.95,254.88 708.47,254.98 720.00,255.16"/>
<text x="540" y="68" font-size="11" fill="#d62728" font-family="Helvetica">mean_sync</text>
<polyline fill="none" stroke="#2ca02c" stroke-width="1.4" points="40.00,280.00 51.53,237.74 63.05,214.81 74.58,199.36 86.10,187.78 97.63,178.68 109.15,170.89 120.68,164.86 132.20,159.24 143.73,154.31 155.25,144.28 166.78,136.97 178.31,130.76 189.83,125.93 201.36,121.93 212.88,118.35 224.41,115.19 235.93,112.69 247.46,110.01 258.98,107.60 270.51,102.75 282.03,98.82 293.56,95.44 305.08,92.54 316.61,90.13 328.14,87.91 339.66,85.98 351.19,84.28 362.71,82.63 374.24,81.22 385.76,78.18 397.29,75.64 408.81,73.53 420.34,71.59 431.86,69.88 443.39,68.49 454.92,67.29 466.44,66.12 477.97,65.03 489.49,64.11 501.02,61.91 512.54,59.96 524.07,58.30 535.59,56.88 547.12,55.53 558.64,54.35 570.17,53.30 581.69,52.33 593.22,51.34 604.75,50.49 616.27,48.64 627.80,47.18 639.32,45.88 650.85,44.76 662.37,43.80 673.90,42.91 685.42,42.04 696.95,41.28 708.47,40.63 720.00,40.00"/>
<text x="540" y="82" font-size="11" fill="#2ca02c" font-family="Helvetica">mean_entropy</text>
<text x="380" y="312" text-anchor="middle" font-size="11" font-family="Helvetica">K</text>
<text x="14" y="160" transform="rotate(-90 14,160)" text-anchor="middle" font-size="11" font-family="Helvetica">value</text>
</svg>
