<svg xmlns="http://www.w3.org/2000/svg" width="760" height="320">
<rect width="100%" height="100%" fill="white"/>
<text x="40" y="24" font-family="Helvetica" font-size="14">S4 Phi-like mean curve</text>
<line x1="40" y1="280" x2="720" y2="280" stroke="black"/>
<line x1="40" y1="40" x2="40" y2="280" stroke="black"/>
<polyline fill="none" stroke="#1f77b4" stroke-width="1.4" points="40.00,280.00 51.53,40.00 63.05,79.66 74.58,81.09 86.10,79.17 97.63,70.34 109.15,67.10 120.68,70.74 132.20,72.59 143.73,73.61 155.25,69.84 166.78,71.13 178.31,67.97 189.83,66.47 201.36,63.85 212.88,61.33 224.41,60.09 235.93,60.61 247.46,60.39 258.98,60.75 270.51,59.00 282.03,55.98 293.56,56.93 305.08,57.11 316.61,57.51 328.14,59.98 339.66,61.01 351.19,59.86 362.71,61.73 374.24,62.69 385.76,65.02 397.29,65.55 408.81,66.02 420.34,67.45 431.86,67.93 443.39,71.06 454.92,71.25 466.44,71.15 477.97,71.76 489.49,71.81 501.02,70.61 512.54,69.60 524.07,69.14 535.59,68.76 547.12,68.26 558.64,67.07 570.17,66.97 581.69,66.92 593.22,66.73 604.75,66.79 616.27,67.06 627.80,66.61 639.32,66.58 650.85,67.40 662.37,66.20 673.90,67.02 685.42,66.72 696.95,66.76 708.47,67.23 720.00,66.72"/>
<text x="540" y="54" font-size="11" fill="#1f77b4" font-family="Helvetica">mean_phi</text>
<text x="380" y="312" text-anchor="middle" font-size="11" font-family="Helvetica">K</text>
<text x="14" y="160" transform="rotate(-90 14,160)" text-anchor="middle" font-size="11" font-family="Helvetica">phi</text>
</svg>
