<svg xmlns="http://www.w3.org/2000/svg" width="720" height="360">
<rect width="100%" height="100%" fill="white"/>
<text x="50" y="24" font-family="Helvetica" font-size="14">M4 score landscape (min over lambda)</text>
<rect x="50.00" y="50.00" width="155.00" height="43.33" fill="rgb(196,60,58)" stroke="#ddd"/>
<text x="127.50" y="74.67" text-anchor="middle" font-size="9" fill="white">128.2</text>
<rect x="205.00" y="50.00" width="155.00" height="43.33" fill="rgb(251,60,3)" stroke="#ddd"/>
<text x="282.50" y="74.67" text-anchor="middle" font-size="9" fill="white">133.7</text>
<rect x="360.00" y="50.00" width="155.00" height="43.33" fill="rgb(255,60,0)" stroke="#ddd"/>
<text x="437.50" y="74.67" text-anchor="middle" font-size="9" fill="white">134.0</text>
<rect x="515.00" y="50.00" width="155.00" height="43.33" fill="rgb(103,60,151)" stroke="#ddd"/>
<text x="592.50" y="74.67" text-anchor="middle" font-size="9" fill="white">119.0</text>
<rect x="50.00" y="93.33" width="155.00" height="43.33" fill="rgb(39,60,215)" stroke="#ddd"/>
<text x="127.50" y="118.00" text-anchor="middle" font-size="9" fill="white">112.6</text>
<rect x="205.00" y="93.33" width="155.00" height="43.33" fill="rgb(101,60,153)" stroke="#ddd"/>
<text x="282.50" y="118.00" text-anchor="middle" font-size="9" fill="white">118.8</text>
<rect x="360.00" y="93.33" width="155.00" height="43.33" fill="rgb(162,60,92)" stroke="#ddd"/>
<text x="437.50" y="118.00" text-anchor="middle" font-size="9" fill="white">124.8</text>
<rect x="515.00" y="93.33" width="155.00" height="43.33" fill="rgb(0,60,255)" stroke="#ddd"/>
<text x="592.50" y="118.00" text-anchor="middle" font-size="9" fill="white">108.7</text>
<rect x="50.00" y="136.67" width="155.00" height="43.33" fill="rgb(64,60,190)" stroke="#ddd"/>
<text x="127.50" y="161.33" text-anchor="middle" font-size="9" fill="white">115.1</text>
<rect x="205.00" y="136.67" width="155.00" height="43.33" fill="rgb(69,60,185)" stroke="#ddd"/>
<text x="282.50" y="161.33" text-anchor="middle" font-size="9" fill="white">115.6</text>
<rect x="360.00" y="136.67" width="155.00" height="43.33" fill="rgb(86,60,168)" stroke="#ddd"/>
<text x="437.50" y="161.33" text-anchor="middle" font-size="9" fill="white">117.3</text>
<rect x="515.00" y="136.67" width="155.00" height="43.33" fill="rgb(108,60,146)" stroke="#ddd"/>
<text x="592.50" y="161.33" text-anchor="middle" font-size="9" fill="white">119.5</text>
<rect x="50.00" y="180.00" width="155.00" height="43.33" fill="rgb(220,60,34)" stroke="#ddd"/>
<text x="127.50" y="204.67" text-anchor="middle" font-size="9" fill="white">130.6</text>
<rect x="205.00" y="180.00" width="155.00" height="43.33" fill="rgb(18,60,236)" stroke="#ddd"/>
<text x="282.50" y="204.67" text-anchor="middle" font-size="9" fill="white">110.6</text>
<rect x="360.00" y="180.00" width="155.00" height="43.33" fill="rgb(245,60,9)" stroke="#ddd"/>
<text x="437.50" y="204.67" text-anchor="middle" font-size="9" fill="white">133.1</text>
<rect x="515.00" y="180.00" width="155.00" height="43.33" fill="rgb(167,60,87)" stroke="#ddd"/>
<text x="592.50" y="204.67" text-anchor="middle" font-size="9" fill="white">125.3</text>
<rect x="50.00" y="223.33" width="155.00" height="43.33" fill="rgb(99,60,155)" stroke="#ddd"/>
<text x="127.50" y="248.00" text-anchor="middle" font-size="9" fill="white">118.6</text>
<rect x="205.00" y="223.33" width="155.00" height="43.33" fill="rgb(177,60,77)" stroke="#ddd"/>
<text x="282.50" y="248.00" text-anchor="middle" font-size="9" fill="white">126.3</text>
<rect x="360.00" y="223.33" width="155.00" height="43.33" fill="rgb(211,60,43)" stroke="#ddd"/>
<text x="437.50" y="248.00" text-anchor="middle" font-size="9" fill="white">129.7</text>
<rect x="515.00" y="223.33" width="155.00" height="43.33" fill="rgb(94,60,160)" stroke="#ddd"/>
<text x="592.50" y="248.00" text-anchor="middle" font-size="9" fill="white">118.1</text>
<rect x="50.00" y="266.67" width="155.00" height="43.33" fill="rgb(228,60,26)" stroke="#ddd"/>
<text x="127.50" y="291.33" text-anchor="middle" font-size="9" fill="white">131.4</text>
<rect x="205.00" y="266.67" width="155.00" height="43.33" fill="rgb(168,60,86)" stroke="#ddd"/>
<text x="282.50" y="291.33" text-anchor="middle" font-size="9" fill="white">125.4</text>
<rect x="360.00" y="266.67" width="155.00" height="43.33" fill="rgb(189,60,65)" stroke="#ddd"/>
<text x="437.50" y="291.33" text-anchor="middle" font-size="9" fill="white">127.5</text>
<rect x="515.00" y="266.67" width="155.00" height="43.33" fill="rgb(227,60,27)" stroke="#ddd"/>
<text x="592.50" y="291.33" text-anchor="middle" font-size="9" fill="white">131.3</text>
<text x="127.50" y="326.00" text-anchor="middle" font-size="10">0.1</text>
<text x="282.50" y="326.00" text-anchor="middle" font-size="10">0.3</text>
<text x="437.50" y="326.00" text-anchor="middle" font-size="10">0.5</text>
<text x="592.50" y="326.00" text-anchor="middle" font-size="10">0.7</text>
<text x="40.00" y="74.67" text-anchor="end" font-size="10">6</text>
<text x="40.00" y="118.00" text-anchor="end" font-size="10">8</text>
<text x="40.00" y="161.33" text-anchor="end" font-size="10">10</text>
<text x="40.00" y="204.67" text-anchor="end" font-size="10">11</text>
<text x="40.00" y="248.00" text-anchor="end" font-size="10">12</text>
<text x="40.00" y="291.33" text-anchor="end" font-size="10">14</text>
<text x="360.00" y="352.00" text-anchor="middle" font-size="11">eta</text>
<text x="14" y="180" transform="rotate(-90 14,180)" text-anchor="middle" font-size="11">alpha_target</text>
</svg>
