<svg xmlns="http://www.w3.org/2000/svg" width="760" height="320">
<rect width="100%" height="100%" fill="white"/>
<text x="80" y="24" font-family="Helvetica" font-size="14">Mechanism minimal-set law failures</text>
<rect x="80.00" y="80.00" width="150.00" height="32.00" fill="#2ca02c" stroke="#ddd"/>
<text x="155.00" y="100.00" text-anchor="middle" font-size="11" fill="white">0</text>
<rect x="230.00" y="80.00" width="150.00" height="32.00" fill="#2ca02c" stroke="#ddd"/>
<text x="305.00" y="100.00" text-anchor="middle" font-size="11" fill="white">0</text>
<rect x="380.00" y="80.00" width="150.00" height="32.00" fill="#2ca02c" stroke="#ddd"/>
<text x="455.00" y="100.00" text-anchor="middle" font-size="11" fill="white">0</text>
<rect x="530.00" y="80.00" width="150.00" height="32.00" fill="#2ca02c" stroke="#ddd"/>
<text x="605.00" y="100.00" text-anchor="middle" font-size="11" fill="white">0</text>
<rect x="80.00" y="112.00" width="150.00" height="32.00" fill="#2ca02c" stroke="#ddd"/>
<text x="155.00" y="132.00" text-anchor="middle" font-size="11" fill="white">0</text>
<rect x="230.00" y="112.00" width="150.00" height="32.00" fill="#d62728" stroke="#ddd"/>
<text x="305.00" y="132.00" text-anchor="middle" font-size="11" fill="white">1</text>
<rect x="380.00" y="112.00" width="150.00" height="32.00" fill="#2ca02c" stroke="#ddd"/>
<text x="455.00" y="132.00" text-anchor="middle" font-size="11" fill="white">0</text>
<rect x="530.00" y="112.00" width="150.00" height="32.00" fill="#d62728" stroke="#ddd"/>
<text x="605.00" y="132.00" text-anchor="middle" font-size="11" fill="white">1</text>
<rect x="80.00" y="144.00" width="150.00" height="32.00" fill="#d62728" stroke="#ddd"/>
<text x="155.00" y="164.00" text-anchor="middle" font-size="11" fill="white">1</text>
<rect x="230.00" y="144.00" width="150.00" height="32.00" fill="#d62728" stroke="#ddd"/>
<text x="305.00" y="164.00" text-anchor="middle" font-size="11" fill="white">1</text>
<rect x="380.00" y="144.00" width="150.00" height="32.00" fill="#2ca02c" stroke="#ddd"/>
<text x="455.00" y="164.00" text-anchor="middle" font-size="11" fill="white">0</text>
<rect x="530.00" y="144.00" width="150.00" height="32.00" fill="#2ca02c" stroke="#ddd"/>
<text x="605.00" y="164.00" text-anchor="middle" font-size="11" fill="white">0</text>
<rect x="80.00" y="176.00" width="150.00" height="32.00" fill="#d62728" stroke="#ddd"/>
<text x="155.00" y="196.00" text-anchor="middle" font-size="11" fill="white">1</text>
<rect x="230.00" y="176.00" width="150.00" height="32.00" fill="#d62728" stroke="#ddd"/>
<text x="305.00" y="196.00" text-anchor="middle" font-size="11" fill="white">1</text>
<rect x="380.00" y="176.00" width="150.00" height="32.00" fill="#2ca02c" stroke="#ddd"/>
<text x="455.00" y="196.00" text-anchor="middle" font-size="11" fill="white">0</text>
<rect x="530.00" y="176.00" width="150.00" height="32.00" fill="#2ca02c" stroke="#ddd"/>
<text x="605.00" y="196.00" text-anchor="middle" font-size="11" fill="white">0</text>
<rect x="80.00" y="208.00" width="150.00" height="32.00" fill="#2ca02c" stroke="#ddd"/>
<text x="155.00" y="228.00" text-anchor="middle" font-size="11" fill="white">0</text>
<rect x="230.00" y="208.00" width="150.00" height="32.00" fill="#d62728" stroke="#ddd"/>
<text x="305.00" y="228.00" text-anchor="middle" font-size="11" fill="white">1</text>
<rect x="380.00" y="208.00" width="150.00" height="32.00" fill="#2ca02c" stroke="#ddd"/>
<text x="455.00" y="228.00" text-anchor="middle" font-size="11" fill="white">0</text>
<rect x="530.00" y="208.00" width="150.00" height="32.00" fill="#2ca02c" stroke="#ddd"/>
<text x="605.00" y="228.00" text-anchor="middle" font-size="11" fill="white">0</text>
<text x="155.00" y="258.00" text-anchor="middle" font-size="10">L1_phi</text>
<text x="305.00" y="258.00" text-anchor="middle" font-size="10">L2_cond</text>
<text x="455.00" y="258.00" text-anchor="middle" font-size="10">L3_sync</text>
<text x="605.00" y="258.00" text-anchor="middle" font-size="10">L4_entropy</text>
<text x="72.00" y="100.00" text-anchor="end" font-size="10">baseline_M5</text>
<text x="72.00" y="132.00" text-anchor="end" font-size="10">no_cascade_sigma0</text>
<text x="72.00" y="164.00" text-anchor="end" font-size="10">no_latent_r0</text>
<text x="72.00" y="196.00" text-anchor="end" font-size="10">no_long_range_bandlimit</text>
<text x="72.00" y="228.00" text-anchor="end" font-size="10">no_norm_constraint_proxy</text>
</svg>
