<svg xmlns="http://www.w3.org/2000/svg" width="760" height="320">
<rect width="100%" height="100%" fill="white"/>
<text x="40" y="24" font-family="Helvetica" font-size="14">Spectral entropy vs K</text>
<line x1="40" y1="280" x2="720" y2="280" stroke="black"/>
<line x1="40" y1="40" x2="40" y2="280" stroke="black"/>
<polyline fill="none" stroke="#1f77b4" stroke-width="1.4" points="40.00,280.00 51.53,233.19 63.05,204.87 74.58,208.76 86.10,212.26 97.63,217.77 109.15,200.10 120.68,184.15 132.20,179.10 143.73,178.87 155.25,167.04 166.78,157.04 178.31,154.06 189.83,151.77 201.36,148.84 212.88,145.27 224.41,143.85 235.93,144.21 247.46,138.51 258.98,132.80 270.51,127.14 282.03,125.78 293.56,123.90 305.08,123.59 316.61,122.14 328.14,122.79 339.66,124.07 351.19,122.60 362.71,122.42 374.24,121.58 385.76,120.01 397.29,118.96 408.81,116.95 420.34,115.76 431.86,115.73 443.39,114.26 454.92,113.36 466.44,113.36 477.97,113.36 489.49,113.36 501.02,113.36 512.54,113.36 524.07,113.36 535.59,113.36 547.12,113.36 558.64,113.36 570.17,113.36 581.69,113.36 593.22,113.36 604.75,113.36 616.27,113.36 627.80,113.36 639.32,113.36 650.85,113.36 662.37,113.36 673.90,113.36 685.42,113.36 696.95,113.36 708.47,113.36 720.00,113.36"/>
<text x="540" y="54" font-size="11" fill="#1f77b4" font-family="Helvetica">entropy_baseline</text>
<polyline fill="none" stroke="#d62728" stroke-width="1.4" points="40.00,280.00 51.53,240.10 63.05,228.58 74.58,209.04 86.10,193.91 97.63,188.32 109.15,181.31 120.68,176.72 132.20,166.89 143.73,163.63 155.25,153.42 166.78,146.73 178.31,141.09 189.83,134.00 201.36,128.95 212.88,125.21 224.41,120.79 235.93,118.91 247.46,116.20 258.98,113.09 270.51,108.25 282.03,106.00 293.56,104.39 305.08,103.67 316.61,102.57 328.14,102.00 339.66,100.91 351.19,99.68 362.71,98.84 374.24,100.01 385.76,97.97 397.29,95.81 408.81,93.59 420.34,91.50 431.86,89.43 443.39,86.61 454.92,84.45 466.44,82.38 477.97,80.48 489.49,78.40 501.02,78.40 512.54,78.40 524.07,78.40 535.59,78.40 547.12,78.40 558.64,78.40 570.17,78.40 581.69,78.40 593.22,78.40 604.75,78.40 616.27,78.40 627.80,78.40 639.32,78.40 650.85,78.40 662.37,78.40 673.90,78.40 685.42,78.40 696.95,78.40 708.47,78.40 720.00,78.40"/>
<text x="540" y="68" font-size="11" fill="#d62728" font-family="Helvetica">entropy_block</text>
<polyline fill="none" stroke="#2ca02c" stroke-width="1.4" points="40.00,280.00 51.53,232.24 63.05,204.49 74.58,184.54 86.10,169.05 97.63,156.52 109.15,146.31 120.68,137.03 132.20,129.15 143.73,121.84 155.25,115.27 166.78,109.37 178.31,103.88 189.83,98.74 201.36,94.13 212.88,90.16 224.41,86.30 235.93,82.90 247.46,79.63 258.98,76.93 270.51,73.56 282.03,70.50 293.56,67.89 305.08,66.39 316.61,63.66 328.14,61.21 339.66,58.80 351.19,56.48 362.71,54.37 374.24,51.99 385.76,50.30 397.29,48.13 408.81,46.43 420.34,44.66 431.86,43.16 443.39,41.45 454.92,40.00 466.44,40.00 477.97,40.00 489.49,40.00 501.02,40.00 512.54,40.00 524.07,40.00 535.59,40.00 547.12,40.00 558.64,40.00 570.17,40.00 581.69,40.00 593.22,40.00 604.75,40.00 616.27,40.00 627.80,40.00 639.32,40.00 650.85,40.00 662.37,40.00 673.90,40.00 685.42,40.00 696.95,40.00 708.47,40.00 720.00,40.00"/>
<text x="540" y="82" font-size="11" fill="#2ca02c" font-family="Helvetica">entropy_within</text>
<text x="380" y="312" text-anchor="middle" font-size="11" font-family="Helvetica">K</text>
<text x="14" y="160" transform="rotate(-90 14,160)" text-anchor="middle" font-size="11" font-family="Helvetica">entropy</text>
</svg>
