<svg xmlns="http://www.w3.org/2000/svg" width="760" height="320">
<rect width="100%" height="100%" fill="white"/>
<text x="40" y="24" font-family="Helvetica" font-size="14">S5 Phi-like mean curve</text>
<line x1="40" y1="280" x2="720" y2="280" stroke="black"/>
<line x1="40" y1="40" x2="40" y2="280" stroke="black"/>
<polyline fill="none" stroke="#1f77b4" stroke-width="1.4" points="40.00,280.00 51.53,40.00 63.05,82.44 74.58,79.94 86.10,63.91 97.63,75.29 109.15,84.37 120.68,97.27 132.20,93.37 143.73,82.03 155.25,77.45 166.78,74.71 178.31,93.37 189.83,86.90 201.36,85.17 212.88,84.93 224.41,82.74 235.93,79.88 247.46,80.74 258.98,85.30 270.51,87.17 282.03,83.06 293.56,84.62 305.08,82.19 316.61,81.16 328.14,80.71 339.66,85.55 351.19,82.78 362.71,81.72 374.24,83.30 385.76,85.24 397.29,86.10 408.81,84.24 420.34,84.64 431.86,84.07 443.39,84.48 454.92,83.94 466.44,84.08 477.97,83.01 489.49,82.53 501.02,80.45 512.54,78.63 524.07,78.53 535.59,79.21 547.12,79.79 558.64,80.94 570.17,82.82 581.69,80.59 593.22,81.12 604.75,81.55 616.27,80.97 627.80,81.91 639.32,81.53 650.85,80.72 662.37,79.31 673.90,79.58 685.42,80.80 696.95,80.74 708.47,78.92 720.00,79.85"/>
<text x="540" y="54" font-size="11" fill="#1f77b4" font-family="Helvetica">mean_phi</text>
<text x="380" y="312" text-anchor="middle" font-size="11" font-family="Helvetica">K</text>
<text x="14" y="160" transform="rotate(-90 14,160)" text-anchor="middle" font-size="11" font-family="Helvetica">phi</text>
</svg>
